<?xml version="1.0" encoding="UTF-8" standalone="no"?>
<svg color="black" width="12px" height="12px" viewBox="0 0 12 12" version="1.1" xmlns="http://www.w3.org/2000/svg" xmlns:xlink="http://www.w3.org/1999/xlink">
    <!-- Generator: Sketch 39.1 (31720) - http://www.bohemiancoding.com/sketch -->
    <title>Shape Copy 39</title>
    <desc>Created with Sketch.</desc>
    <defs></defs>
    <g id="Page-1" stroke="none" stroke-width="1" fill="none" fill-rule="evenodd">
        <g id="filter_map" transform="translate(-1158.000000, -608.000000)" fill="#575F63">
            <path d="M1164.49642,612.71678 L1164.49642,606.996424 C1164.49642,606.50502 1164.09801,606.106602 1163.6066,606.106602 C1163.1152,606.106602 1162.71678,606.50502 1162.71678,606.996424 L1162.71678,612.71678 L1156.99642,612.71678 C1156.50502,612.71678 1156.1066,613.115197 1156.1066,613.606602 C1156.1066,614.098006 1156.50502,614.496424 1156.99642,614.496424 L1162.71678,614.496424 L1162.71678,620.21678 C1162.71678,620.708184 1163.1152,621.106602 1163.6066,621.106602 C1164.09801,621.106602 1164.49642,620.708184 1164.49642,620.21678 L1164.49642,614.496424 L1170.21678,614.496424 C1170.70818,614.496424 1171.1066,614.098006 1171.1066,613.606602 C1171.1066,613.115197 1170.70818,612.71678 1170.21678,612.71678 L1164.49642,612.71678 Z" id="Shape-Copy-39" transform="translate(1163.606602, 613.606602) rotate(-315.000000) translate(-1163.606602, -613.606602) "></path>
        </g>
    </g>
</svg>
