<?xml version="1.0" encoding="UTF-8" standalone="no"?>
<svg width="19px" height="19px" viewBox="0 0 19 19" version="1.1" xmlns="http://www.w3.org/2000/svg" xmlns:xlink="http://www.w3.org/1999/xlink">
    <!-- Generator: Sketch 39.1 (31720) - http://www.bohemiancoding.com/sketch -->
    <title>delete</title>
    <desc>Created with Sketch.</desc>
    <defs></defs>
    <g id="Actions_dev" stroke="none" stroke-width="1" fill="none" fill-rule="evenodd">
        <g id="states" transform="translate(-3405.000000, -604.000000)" fill="#FFFFFF">
            <g id="delete" transform="translate(3404.825684, 604.000000)">
                <path d="M14.2218933,4 L14.2218933,3 C14.2218933,1.3425 12.8793933,0 11.2218933,0 L8.22189331,0 C6.56439331,0 5.22189331,1.3425 5.22189331,3 L5.22189331,4 L1.22189331,4 C0.669643311,4 0.221893311,4.44775 0.221893311,5 C0.221893311,5.55225 0.669643311,6 1.22189331,6 L2.22189331,6 L2.22189331,16 C2.22189331,17.6575 3.56439331,19 5.22189331,19 L14.2218933,19 C15.8793933,19 17.2218933,17.6575 17.2218933,16 L17.2218933,6 L18.2218933,6 C18.7741433,6 19.2218933,5.55225 19.2218933,5 C19.2218933,4.44775 18.7741433,4 18.2218933,4 L14.2218933,4 Z M8.22189331,2 L11.2218933,2 C11.7743933,2 12.2218933,2.4475 12.2218933,3 L12.2218933,4 L7.22189331,4 L7.22189331,3 C7.22189331,2.4475 7.66939331,2 8.22189331,2 Z M14.2218933,17 L5.22189331,17 C4.66939331,17 4.22189331,16.5525 4.22189331,16 L4.22189331,6 L15.2218933,6 L15.2218933,16 C15.2218933,16.5525 14.7743933,17 14.2218933,17 Z" id="Shape-Copy-31"></path>
            </g>
        </g>
    </g>
</svg>