<?xml version="1.0" encoding="UTF-8"?>
<svg width="16px" height="11px" viewBox="0 0 16 11" version="1.1" xmlns="http://www.w3.org/2000/svg" xmlns:xlink="http://www.w3.org/1999/xlink">
    <!-- Generator: Sketch 39.1 (31720) - http://www.bohemiancoding.com/sketch -->
    <title>ok</title>
    <desc>Created with Sketch.</desc>
    <defs></defs>
    <g id="Page-1" stroke="none" stroke-width="1" fill="none" fill-rule="evenodd">
        <g id="actions" transform="translate(-2383.000000, -1714.000000)" fill="#FFFFFF">
            <g id="Group-2" transform="translate(2373.000000, 1700.000000)">
                <g id="ok" transform="translate(10.000000, 14.000000)">
                    <g id="Group-9">
                        <path d="M5.2928932,9.10599204 C4.90236892,9.53556877 4.90236893,10.2320502 5.29289323,10.661627 C5.68341753,11.0912037 6.31658251,11.0912037 6.7071068,10.6616269 L15.6923878,1.87781744 C16.0829121,1.44824071 16.0829121,0.751759238 15.6923878,0.322182525 C15.3018635,-0.107394187 14.6686985,-0.107394173 14.2781742,0.322182556 L5.2928932,9.10599204 Z" id="Line"></path>
                        <path d="M6.69238779,9.10599204 C7.08291207,9.53556877 7.08291206,10.2320502 6.69238776,10.661627 C6.30186346,11.0912037 5.66869848,11.0912037 5.2781742,10.6616269 L0.292893205,5.17781744 C-0.0976310792,4.74824071 -0.0976310667,4.05175924 0.292893233,3.62218253 C0.683417532,3.19260581 1.31658251,3.19260583 1.7071068,3.62218256 L6.69238779,9.10599204 L6.69238779,9.10599204 Z" id="Line-Copy-17"></path>
                    </g>
                </g>
            </g>
        </g>
    </g>
</svg>
