<?xml version="1.0" encoding="UTF-8"?>
<svg width="16px" height="16px" viewBox="0 0 16 16" version="1.1" xmlns="http://www.w3.org/2000/svg" xmlns:xlink="http://www.w3.org/1999/xlink">
    <!-- Generator: Sketch 41.1 (35376) - http://www.bohemiancoding.com/sketch -->
    <title>arrow</title>
    <desc>Created with Sketch.</desc>
    <defs></defs>
    <g id="tasks" stroke="none" stroke-width="1" fill="none" fill-rule="evenodd">
        <g id="edit_task_sg" transform="translate(-1263.000000, -66.000000)" fill="#FFFFFF">
            <g id="Group-5" transform="translate(1250.000000, 57.000000)">
                <g id="arrow" transform="translate(13.000000, 9.000000)">
                    <path d="M15.9684978,4.76427674 C15.9890627,4.8440733 16,4.92772768 16,5.0139323 C16,5.35535375 15.8505249,5.57592773 15.5666741,5.83694942 C15.2828232,6.0979711 11.7152217,9.7074047 11.7152217,9.7074047 C11.3244363,10.0975318 10.6908479,10.0975318 10.3000625,9.7074047 C9.90927705,9.31727764 9.90927705,8.6847567 10.3000625,8.29462963 L12.576926,6.01291513 L6.00066871,6.01291513 C5.44801464,6.01291513 5,5.56565528 5,5.0139323 C5,4.46220931 5.44801464,4.01494947 6.00066871,4.01494947 L12.6045424,4.01494947 L10.3000625,1.70537037 C9.90927705,1.3152433 9.90927705,0.68272236 10.3000625,0.292595297 C10.6908479,-0.0975317657 11.3244363,-0.0975317657 11.7152217,0.292595297 C11.7152217,0.292595297 15.6718914,4.2574311 15.7020713,4.28756017 C15.8385309,4.42378982 15.9273397,4.58957596 15.9684978,4.76427674 Z M0,10.0020891 C0,10.0020891 0.0356445312,9 1.01782227,9 C2,9 2,10.0020891 2,10.0020891 L2,14.9979109 C2,14.9979109 2,16 1.01782227,16 C0.0356445312,16 0,14.9979109 0,14.9979109 L0,10.0020891 L0,10.0020891 L0,10.0020891 Z" id="Combined-Shape"></path>
                    <path d="M5.72944801,4 C2.56516125,4 4.72510919e-13,6.56516125 4.72510919e-13,9.72944801 C4.72510919e-13,11.4263192 0.737667653,12.9508988 2,14 L2,10 C1.909816,7.6199235 3.6199235,5.909816 6,6 L10,6 C8.95089882,4.73766765 7.42631917,4 5.72944801,4 Z" id="Combined-Shape"></path>
                </g>
            </g>
        </g>
    </g>
</svg>
