<?xml version="1.0" encoding="UTF-8"?>
<svg width="16px" height="16px" viewBox="0 0 16 16" version="1.1" xmlns="http://www.w3.org/2000/svg" xmlns:xlink="http://www.w3.org/1999/xlink">
    <!-- Generator: Sketch 41.1 (35376) - http://www.bohemiancoding.com/sketch -->
    <title>Shape Copy 29</title>
    <desc>Created with Sketch.</desc>
    <defs></defs>
    <g id="tasks" stroke="none" stroke-width="1" fill="none" fill-rule="evenodd">
        <g id="quick_view_sg" transform="translate(-70.000000, -990.000000)" fill="#FFFFFF">
            <path d="M82,995.869565 L82,993.913043 C82,991.751902 80.2091667,990 78,990 C75.7908333,990 74,991.751902 74,993.913043 L74,995.869565 C74,996.973859 74.4686667,997.971033 75.221,998.682554 C72.1728333,999.147065 70,1000.3513 70,1001.75446 L70,1004.04348 C70,1005.12446 70.895,1006 72,1006 L84,1006 C85.105,1006 86,1005.12446 86,1004.04348 L86,1001.75951 C86,1000.35652 83.827,999.148533 80.7785,998.683043 C81.5313333,997.971685 82,996.974185 82,995.869565 Z M76,994.181818 C76,992.976909 76.8955,992 78,992 C79.104625,992 80,992.976909 80,994.181818 L80.0101318,995.813726 C80.0101318,997.018635 79.1147568,997.995544 78.0101318,997.995544 C76.9056318,997.995544 76.0101318,997.018635 76.0101318,995.813726 L76,994.181818 Z M83.5490909,1004 L72.4509091,1004 C72.2022327,1004 72,1003.77575 72,1003.5 L72.0321045,1002.07657 C72.0321045,1001.96007 72.3565804,1001.56484 73.1284241,1001.20597 C74.0306931,1000.78634 76.2981986,1000.54572 78.0321045,1000.54572 C78.912795,1000.54572 82.1617804,1000.78697 83.0643877,1001.20747 C83.8366822,1001.56747 84.0321045,1001.96344 84.0321045,1002.08044 L84,1003.5 C84,1003.77575 83.7977673,1004 83.5490909,1004 Z" id="Shape-Copy-29"></path>
        </g>
    </g>
</svg>